<?xml version="1.0" encoding="utf-8"?>
<!-- Generator: Adobe Illustrator 21.0.2, SVG Export Plug-In . SVG Version: 6.00 Build 0)  -->
<svg version="1.1" id="Capa_1" xmlns="http://www.w3.org/2000/svg" xmlns:xlink="http://www.w3.org/1999/xlink" x="0px" y="0px"
	 viewBox="0 0 3092.5 3092.5" style="enable-background:new 0 0 3092.5 3092.5;" xml:space="preserve">
<style type="text/css">
	.st0{fill:#323333;}
	.st1{fill:#707070;}
</style>
<path class="st0" d="M842.3,2314.3h288v-288h-288V2314.3z M1194.3,2314.3h320v-288h-320V2314.3z M842.3,1962.3h288v-320h-288V1962.3
	z M1194.3,1962.3h320v-320h-320V1962.3z M842.3,1578.3h288v-288h-288V1578.3z M1578.3,2314.3h320v-288h-320V2314.3z M1194.3,1578.3
	h320v-288h-320V1578.3z M1962.3,2314.3h288v-288h-288V2314.3z M1578.3,1962.3h320v-320h-320V1962.3z M1226.3,1098.3v-288
	c0-8.7-3.2-16.2-9.5-22.5c-6.3-6.3-13.8-9.5-22.5-9.5h-64c-8.7,0-16.2,3.2-22.5,9.5c-6.3,6.3-9.5,13.8-9.5,22.5v288
	c0,8.7,3.2,16.2,9.5,22.5c6.3,6.3,13.8,9.5,22.5,9.5h64c8.7,0,16.2-3.2,22.5-9.5C1223.1,1114.5,1226.3,1107,1226.3,1098.3z
	 M1962.3,1962.3h288v-320h-288V1962.3z M1578.3,1578.3h320v-288h-320V1578.3z M1962.3,1578.3h288v-288h-288V1578.3z M1994.3,1098.3
	v-288c0-8.7-3.2-16.2-9.5-22.5c-6.3-6.3-13.8-9.5-22.5-9.5h-64c-8.7,0-16.2,3.2-22.5,9.5c-6.3,6.3-9.5,13.8-9.5,22.5v288
	c0,8.7,3.2,16.2,9.5,22.5c6.3,6.3,13.8,9.5,22.5,9.5h64c8.7,0,16.2-3.2,22.5-9.5C1991.1,1114.5,1994.3,1107,1994.3,1098.3z
	 M2378.3,1034.3v1280c0,34.7-12.7,64.7-38,90s-55.3,38-90,38h-1408c-34.7,0-64.7-12.7-90-38c-25.3-25.3-38-55.3-38-90v-1280
	c0-34.7,12.7-64.7,38-90c25.3-25.3,55.3-38,90-38h128v-96c0-44,15.7-81.7,47-113c31.3-31.3,69-47,113-47h64c44,0,81.7,15.7,113,47
	c31.3,31.3,47,69,47,113v96h384v-96c0-44,15.7-81.7,47-113c31.3-31.3,69-47,113-47h64c44,0,81.7,15.7,113,47c31.3,31.3,47,69,47,113
	v96h128c34.7,0,64.7,12.7,90,38S2378.3,999.6,2378.3,1034.3z"/>
<g>
	<path class="st1" d="M1546.3,3051c-203.1,0-400.2-39.8-585.7-118.3c-89.2-37.7-175.2-84.4-255.6-138.7
		c-79.7-53.8-154.6-115.6-222.7-183.7c-68.1-68.1-129.9-143-183.7-222.7c-54.3-80.4-101-166.4-138.7-255.6
		c-78.5-185.5-118.3-382.6-118.3-585.7c0-203.1,39.8-400.2,118.3-585.7c37.7-89.2,84.4-175.2,138.7-255.6
		c53.8-79.7,115.6-154.6,183.7-222.7c68.1-68.1,143-129.9,222.7-183.7c80.4-54.3,166.4-101,255.6-138.7
		c185.5-78.5,382.6-118.3,585.7-118.3c203.1,0,400.2,39.8,585.7,118.3c89.2,37.7,175.2,84.4,255.6,138.7
		c79.7,53.8,154.6,115.6,222.7,183.7c68.1,68.1,129.9,143,183.7,222.7c54.3,80.4,101,166.4,138.7,255.6
		c78.5,185.5,118.3,382.6,118.3,585.7c0,203.1-39.8,400.2-118.3,585.7c-37.7,89.2-84.4,175.2-138.7,255.6
		c-53.8,79.7-115.6,154.6-183.7,222.7c-68.1,68.1-143,129.9-222.7,183.7c-80.4,54.3-166.4,101-255.6,138.7
		C1946.4,3011.2,1749.4,3051,1546.3,3051z M1546.3,111.6c-791.1,0-1434.7,643.6-1434.7,1434.7S755.2,2981,1546.3,2981
		S2981,2337.4,2981,1546.3S2337.4,111.6,1546.3,111.6z"/>
</g>
</svg>
